<?xml version="1.0" standalone="no"?>
<!DOCTYPE svg PUBLIC "-//W3C//DTD SVG 20010904//EN"
 "http://www.w3.org/TR/2001/REC-SVG-20010904/DTD/svg10.dtd">
<svg version="1.0" xmlns="http://www.w3.org/2000/svg"
 width="512.000000pt" height="512.000000pt" viewBox="0 0 512.000000 512.000000"
 preserveAspectRatio="xMidYMid meet">
<metadata>
Created by potrace 1.11, written by Peter Selinger 2001-2013
</metadata>
<g transform="translate(0.000000,512.000000) scale(0.100000,-0.100000)"
fill="#000000" stroke="none">
<path d="M2230 4954 c-706 -65 -1310 -421 -1695 -999 -222 -332 -346 -707
-371 -1122 l-7 -113 159 0 159 0 80 -80 80 -80 330 0 331 0 2 -37 c2 -20 5
-40 8 -45 3 -4 7 -18 9 -30 7 -34 46 -148 61 -177 8 -14 14 -31 14 -37 0 -6 7
-17 15 -24 8 -7 13 -16 10 -20 -3 -4 2 -13 10 -20 8 -7 15 -16 15 -21 0 -17
89 -138 149 -203 39 -41 165 -146 177 -146 4 0 16 -7 26 -17 26 -24 83 -54
183 -98 34 -14 122 -44 151 -49 10 -3 38 -9 61 -14 23 -5 44 -7 48 -4 3 3 5
-159 5 -359 l0 -364 80 -80 80 -80 0 -129 0 -129 113 7 c158 10 301 32 452 71
778 200 1400 822 1600 1600 54 211 69 332 69 565 0 233 -15 354 -69 565 -222
862 -947 1514 -1835 1650 -103 15 -410 27 -500 19z m10 -884 l0 -240 -27 -5
c-182 -37 -358 -114 -489 -213 -224 -169 -368 -407 -429 -704 l-5 -28 -240 0
c-231 0 -240 1 -240 19 0 48 44 240 76 334 84 242 198 422 389 612 192 193
377 309 620 391 106 35 263 71 318 73 l27 1 0 -240z m459 221 c208 -41 424
-131 604 -253 122 -82 333 -293 415 -415 122 -180 212 -396 253 -604 30 -156
57 -139 -221 -139 l-240 0 -5 28 c-61 297 -205 535 -429 704 -131 99 -307 176
-488 213 l-28 5 0 240 c0 278 -17 251 139 221z m-459 -955 l0 -164 49 13 c65
17 175 16 224 -1 22 -8 41 -14 43 -14 2 0 4 74 4 165 0 136 2 165 14 165 29 0
176 -57 233 -91 75 -44 238 -207 282 -282 34 -57 91 -204 91 -233 0 -11 -28
-14 -158 -14 -87 0 -161 -3 -165 -6 -3 -3 0 -23 8 -43 16 -48 17 -158 0 -222
l-13 -49 164 0 c135 0 164 -2 164 -14 0 -29 -57 -176 -91 -233 -44 -75 -207
-238 -282 -282 -57 -34 -204 -91 -233 -91 -12 0 -14 29 -14 165 l0 165 -24
-10 c-65 -25 -207 -22 -279 5 -16 7 -17 -5 -17 -163 l0 -171 -92 31 c-243 82
-424 263 -506 506 l-31 92 170 0 c155 0 182 4 162 24 -13 12 -16 40 -16 141 0
55 5 112 11 128 l12 27 -165 0 c-125 0 -165 3 -165 12 0 7 11 47 25 89 73 219
261 410 482 490 122 44 113 55 113 -135z m1750 -796 c0 -10 -9 -64 -19 -119
-41 -208 -131 -424 -253 -604 -82 -122 -293 -333 -415 -415 -180 -122 -396
-212 -604 -253 -156 -30 -139 -57 -139 221 l0 240 28 5 c181 37 357 114 488
213 224 169 368 407 429 705 l5 27 240 0 c232 0 240 -1 240 -20z"/>
<path d="M874 1417 l-250 -252 101 -101 c56 -55 107 -104 113 -108 8 -5 102
82 267 246 l254 254 -107 107 c-59 59 -112 107 -117 107 -6 -1 -123 -114 -261
-253z"/>
</g>
</svg>
