<?xml version="1.0" standalone="no"?>
<!DOCTYPE svg PUBLIC "-//W3C//DTD SVG 20010904//EN"
 "http://www.w3.org/TR/2001/REC-SVG-20010904/DTD/svg10.dtd">
<svg version="1.0" xmlns="http://www.w3.org/2000/svg"
 width="128.000000pt" height="128.000000pt" viewBox="0 0 128.000000 128.000000"
 preserveAspectRatio="xMidYMid meet">
<metadata>
Created by potrace 1.11, written by Peter Selinger 2001-2013
</metadata>
<g transform="translate(0.000000,128.000000) scale(0.100000,-0.100000)"
fill="#000000" stroke="none">
<path d="M519 1276 c-2 -3 -20 -7 -39 -9 -19 -3 -35 -6 -35 -7 0 -1 -8 -3 -18
-5 -10 -2 -26 -7 -35 -11 -9 -4 -19 -8 -22 -9 -70 -24 -188 -112 -237 -178
-70 -92 -106 -169 -121 -252 -12 -66 -5 -276 8 -292 2 -2 3 -6 4 -10 1 -5 5
-14 9 -20 5 -7 5 -13 1 -13 -4 0 1 -9 11 -20 10 -11 15 -20 12 -20 -4 0 2 -15
13 -32 11 -18 24 -42 29 -53 11 -25 138 -151 171 -170 28 -16 94 -48 125 -60
18 -7 34 -11 70 -19 6 -1 15 -5 21 -8 6 -4 60 -6 120 -4 135 4 158 9 260 57
34 16 67 36 74 44 7 8 18 15 24 15 6 0 36 25 66 55 30 30 50 55 45 55 -5 0 4
13 20 30 16 16 25 30 20 30 -4 0 -1 8 7 18 12 14 24 36 33 62 1 3 5 13 9 22 4
9 9 25 11 35 2 10 4 18 5 18 7 0 13 58 15 150 2 106 -11 171 -52 265 -3 8 -7
17 -7 20 -8 35 -140 178 -201 218 -45 30 -125 72 -125 67 0 -2 -19 3 -42 11
-39 14 -239 30 -249 20z"/>
</g>
</svg>
